<?xml version="1.0" encoding="UTF-8" standalone="no"?>
<!-- Created with Inkscape (http://www.inkscape.org/) -->

<svg
   xmlns:dc="http://purl.org/dc/elements/1.1/"
   xmlns:cc="http://creativecommons.org/ns#"
   xmlns:rdf="http://www.w3.org/1999/02/22-rdf-syntax-ns#"
   xmlns:svg="http://www.w3.org/2000/svg"
   xmlns="http://www.w3.org/2000/svg"
   xmlns:xlink="http://www.w3.org/1999/xlink"
   xmlns:sodipodi="http://sodipodi.sourceforge.net/DTD/sodipodi-0.dtd"
   xmlns:inkscape="http://www.inkscape.org/namespaces/inkscape"
   width="203.51112"
   height="44.563126"
   id="svg4395"
   version="1.1"
   inkscape:version="0.48.4 r9939"
   sodipodi:docname="Logo ECE Paris.svg">
  <defs
     id="defs4397">
    <clipPath
       clipPathUnits="userSpaceOnUse"
       id="clipPath3874">
      <path
         inkscape:connector-curvature="0"
         d="m 977.031,689.953 197.93,0 0,66.654 -197.93,0 0,-66.654 z"
         id="path3876" />
    </clipPath>
    <clipPath
       clipPathUnits="userSpaceOnUse"
       id="clipPath3852">
      <path
         inkscape:connector-curvature="0"
         d="m 1018.205,739.501 c 12.047,-15.359 -15.625,-27.422 -15.625,-27.422 l 0,0 c 17.393,10.825 15.882,24.098 15.176,27.422 l 0,0 -23.165,0 0,-34.785 0.449,0 0.775,1.406 c 13.782,-0.968 29.004,2.596 29.004,2.596 l 0,0 c -0.925,-2.106 -2.521,-3.6 -2.98,-4.002 l 0,0 7.548,0 0,34.785 -11.182,0 z m -17.18,-28.64 c 22.901,7.295 25.533,19.953 25.533,19.953 l 0,0 c 2.057,-5.196 -2.981,-11.03 -2.981,-11.03 l 0,0 c -11.579,-8.237 -25.222,-10.634 -25.222,-10.634 l 0,0 2.67,1.711 z m -3.163,-2.338 c 18.914,1.752 29.372,10.609 29.372,10.609 l 0,0 c 0,-3.776 -2.858,-6.762 -2.858,-6.762 l 0,0 c -13.985,-5.348 -28.149,-5.591 -28.149,-5.591 l 0,0 1.635,1.744 z"
         id="path3854" />
    </clipPath>
    <linearGradient
       x1="0"
       y1="0"
       x2="1"
       y2="0"
       gradientUnits="userSpaceOnUse"
       gradientTransform="matrix(34.498886,35.166458,35.166458,-34.498886,994.67691,704.46169)"
       spreadMethod="pad"
       id="linearGradient3860">
      <stop
         style="stop-opacity:1;stop-color:#32337a"
         offset="0"
         id="stop3862" />
      <stop
         style="stop-opacity:1;stop-color:#45a5e1"
         offset="0.489014"
         id="stop3864" />
      <stop
         style="stop-opacity:1;stop-color:#b2e4f9"
         offset="1"
         id="stop3866" />
    </linearGradient>
    <linearGradient
       inkscape:collect="always"
       xlink:href="#linearGradient3860"
       id="linearGradient4711"
       gradientUnits="userSpaceOnUse"
       gradientTransform="matrix(34.498886,35.166458,35.166458,-34.498886,994.67691,704.46169)"
       spreadMethod="pad"
       x1="0"
       y1="0"
       x2="1"
       y2="0" />
  </defs>
  <sodipodi:namedview
     id="base"
     pagecolor="#ffffff"
     bordercolor="#666666"
     borderopacity="1.0"
     inkscape:pageopacity="0.0"
     inkscape:pageshadow="2"
     inkscape:zoom="31.678384"
     inkscape:cx="-91.613494"
     inkscape:cy="-701.78152"
     inkscape:document-units="px"
     inkscape:current-layer="layer1"
     showgrid="false"
     fit-margin-bottom="0.4"
     inkscape:window-width="1366"
     inkscape:window-height="712"
     inkscape:window-x="0"
     inkscape:window-y="31"
     inkscape:window-maximized="1"
     fit-margin-top="0"
     fit-margin-left="0"
     fit-margin-right="0" />
  <metadata
     id="metadata4400">
    <rdf:RDF>
      <cc:Work
         rdf:about="">
        <dc:format>image/svg+xml</dc:format>
        <dc:type
           rdf:resource="http://purl.org/dc/dcmitype/StillImage" />
      </cc:Work>
    </rdf:RDF>
  </metadata>
  <g
     inkscape:label="Calque 1"
     inkscape:groupmode="layer"
     id="layer1"
     transform="translate(-246.81587,-298.85205)">
    <path
       inkscape:connector-curvature="0"
       d="m 304.45717,342.8503 0.38375,0 0,-43.48375 -0.38375,0 0,43.48375 z"
       style="fill:#231f20;fill-opacity:1;fill-rule:nonzero;stroke:none"
       id="path3846" />
    <g
       transform="matrix(1.25,0,0,-1.25,-996.42288,1223.7603)"
       id="g3848">
      <g
         id="g3850"
         clip-path="url(#clipPath3852)">
        <g
           id="g3856">
          <g
             id="g3858">
            <path
               inkscape:connector-curvature="0"
               d="m 1018.205,739.501 c 12.047,-15.359 -15.625,-27.422 -15.625,-27.422 l 0,0 c 17.393,10.825 15.882,24.098 15.176,27.422 l 0,0 -23.165,0 0,-34.785 0.449,0 0.775,1.406 c 13.782,-0.968 29.004,2.596 29.004,2.596 l 0,0 c -0.925,-2.106 -2.521,-3.6 -2.98,-4.002 l 0,0 7.548,0 0,34.785 -11.182,0 z m -17.18,-28.64 c 22.901,7.295 25.533,19.953 25.533,19.953 l 0,0 c 2.057,-5.196 -2.981,-11.03 -2.981,-11.03 l 0,0 c -11.579,-8.237 -25.222,-10.634 -25.222,-10.634 l 0,0 2.67,1.711 z m -3.163,-2.338 c 18.914,1.752 29.372,10.609 29.372,10.609 l 0,0 c 0,-3.776 -2.858,-6.762 -2.858,-6.762 l 0,0 c -13.985,-5.348 -28.149,-5.591 -28.149,-5.591 l 0,0 1.635,1.744 z"
               style="fill:url(#linearGradient4711);stroke:none"
               id="path3868" />
          </g>
        </g>
      </g>
    </g>
    <g
       transform="matrix(1.25,0,0,-1.25,-996.42288,1223.7603)"
       id="g3870">
      <g
         id="g3872"
         clip-path="url(#clipPath3874)">
        <g
           id="g3878"
           transform="translate(1107.2421,728.3267)">
          <path
             inkscape:connector-curvature="0"
             d="m 0,0 -0.837,0 0,-3.952 0.779,0 c 1.479,0 2.296,0.643 2.296,2.025 C 2.238,-0.642 1.479,0 0,0 m 0.058,-6.462 -0.856,0 0,-4.458 -3.329,0 0,13.431 4.321,0 c 3.27,0 5.275,-1.46 5.275,-4.38 0,-3.036 -2.16,-4.593 -5.411,-4.593"
             style="fill:#3871c1;fill-opacity:1;fill-rule:nonzero;stroke:none"
             id="path3880" />
        </g>
        <g
           id="g3882"
           transform="translate(1117.9082,722.7985)">
          <path
             inkscape:connector-curvature="0"
             d="M 0,0 3.036,0 1.537,4.672 0,0 z m -0.117,8.098 3.659,0 4.672,-13.081 -3.348,-0.545 -0.993,2.92 -4.671,0 -0.896,-2.784 -3.251,0 4.828,13.49 z"
             style="fill:#3871c1;fill-opacity:1;fill-rule:nonzero;stroke:none"
             id="path3884" />
        </g>
        <g
           id="g3886"
           transform="translate(1132.9338,728.3267)">
          <path
             inkscape:connector-curvature="0"
             d="m 0,0 -1.07,0 0,-3.912 1.031,0 c 1.441,0 2.258,0.7 2.258,1.985 C 2.219,-0.681 1.44,0 0,0 m 2.745,-11.056 -2.959,4.749 -0.837,0 0,-4.613 -3.309,0 0,13.431 4.691,0 c 3.251,0 5.159,-1.479 5.159,-4.243 0,-1.869 -0.935,-3.134 -2.531,-3.816 l 3.251,-4.943 -3.465,-0.565 z"
             style="fill:#3871c1;fill-opacity:1;fill-rule:nonzero;stroke:none"
             id="path3888" />
        </g>
        <path
           inkscape:connector-curvature="0"
           d="m 1141.615,730.838 3.329,0 0,-13.431 -3.329,0 0,13.431 z"
           style="fill:#3871c1;fill-opacity:1;fill-rule:nonzero;stroke:none"
           id="path3890" />
        <g
           id="g3892"
           transform="translate(1152.5929,717.2512)">
          <path
             inkscape:connector-curvature="0"
             d="m 0,0 c -1.811,0 -3.329,0.389 -4.691,1.012 l 0.486,2.842 c 1.382,-0.74 2.92,-1.246 4.263,-1.246 0.954,0 1.616,0.409 1.616,1.207 0,0.759 -0.389,1.11 -2.277,1.83 -2.687,1.031 -3.855,1.907 -3.855,4.126 0,2.589 2.025,3.971 4.594,3.971 1.752,0 2.881,-0.331 4.048,-0.895 L 3.679,10.044 c -1.207,0.701 -2.472,1.09 -3.504,1.09 -1.012,0 -1.499,-0.428 -1.499,-1.051 0,-0.682 0.37,-1.012 2.044,-1.655 C 3.659,7.358 4.807,6.346 4.807,4.204 4.807,1.285 2.667,0 0,0"
             style="fill:#3871c1;fill-opacity:1;fill-rule:nonzero;stroke:none"
             id="path3894" />
        </g>
        <g
           id="g3896"
           transform="translate(1052.2861,717.4062)">
          <path
             inkscape:connector-curvature="0"
             d="m 0,0 0,22.212 11.63,0 0,-3.753 -7.384,0 0,-5.107 5.63,0 0,-3.753 -5.63,0 0,-5.846 7.691,0 L 11.937,0 0,0 z"
             style="fill:#231f20;fill-opacity:1;fill-rule:nonzero;stroke:none"
             id="path3898" />
        </g>
        <g
           id="g3900"
           transform="translate(1071.5455,723.9896)">
          <path
             inkscape:connector-curvature="0"
             d="m 0,0 c 0,-2.461 1.077,-3.138 2.769,-3.138 1.692,0 2.769,0.677 2.769,3.138 l 0,1.477 4.245,0 0,-0.923 c 0,-5.476 -2.892,-7.445 -7.014,-7.445 -4.122,0 -7.015,1.969 -7.015,7.445 l 0,7.937 c 0,5.477 2.893,7.446 7.015,7.446 4.122,0 7.014,-1.969 7.014,-7.446 l 0,-0.061 -4.245,0 0,0.615 c 0,2.461 -1.077,3.138 -2.769,3.138 C 1.077,12.183 0,11.506 0,9.045 L 0,0 z"
             style="fill:#231f20;fill-opacity:1;fill-rule:nonzero;stroke:none"
             id="path3902" />
        </g>
        <g
           id="g3904"
           transform="translate(1084.7751,717.4062)">
          <path
             inkscape:connector-curvature="0"
             d="m 0,0 0,22.212 11.63,0 0,-3.753 -7.384,0 0,-5.107 5.629,0 0,-3.753 -5.629,0 0,-5.846 7.691,0 L 11.937,0 0,0 z"
             style="fill:#231f20;fill-opacity:1;fill-rule:nonzero;stroke:none"
             id="path3906" />
        </g>
        <g
           id="g3908"
           transform="translate(1054.3481,712.3634)">
          <path
             inkscape:connector-curvature="0"
             d="M 0,0 -0.345,0 0.731,1.574 1.401,1.422 0,0 z m -1.899,-7.636 0,7.007 3.544,0 0,-0.437 -3.056,0 0,-2.681 2.457,0 0.061,-0.436 -2.518,0 0,-3.016 3.157,0 0,-0.437 -3.645,0 z"
             style="fill:#231f20;fill-opacity:1;fill-rule:nonzero;stroke:none"
             id="path3910" />
        </g>
        <g
           id="g3912"
           transform="translate(1060.9169,704.5961)">
          <path
             inkscape:connector-curvature="0"
             d="m 0,0 c -1.838,0 -3.138,1.462 -3.138,3.625 0,2.132 1.32,3.644 3.219,3.644 0.752,0 1.422,-0.243 1.95,-0.609 L 1.939,6.153 c -0.578,0.416 -1.188,0.68 -1.868,0.68 -1.655,0 -2.701,-1.32 -2.701,-3.188 0,-1.879 1.056,-3.209 2.671,-3.209 0.761,0 1.462,0.305 2.03,0.752 L 2.142,0.72 C 1.614,0.314 0.863,0 0,0"
             style="fill:#231f20;fill-opacity:1;fill-rule:nonzero;stroke:none"
             id="path3914" />
        </g>
        <g
           id="g3916"
           transform="translate(1067.7695,711.4291)">
          <path
             inkscape:connector-curvature="0"
             d="m 0,0 c -1.543,0 -2.599,-1.32 -2.599,-3.188 0,-1.889 1.066,-3.209 2.619,-3.209 1.544,0 2.6,1.32 2.6,3.189 C 2.62,-1.32 1.553,0 0,0 m 0,-6.833 c -1.797,0 -3.107,1.503 -3.107,3.625 0,2.132 1.33,3.645 3.127,3.645 1.798,0 3.107,-1.503 3.107,-3.625 0,-2.132 -1.33,-3.645 -3.127,-3.645"
             style="fill:#231f20;fill-opacity:1;fill-rule:nonzero;stroke:none"
             id="path3918" />
        </g>
        <g
           id="g3920"
           transform="translate(1073.2206,704.7278)">
          <path
             inkscape:connector-curvature="0"
             d="m 0,0 0,7.006 0.487,0 0,-6.569 2.843,0 L 3.402,0 0,0 z"
             style="fill:#231f20;fill-opacity:1;fill-rule:nonzero;stroke:none"
             id="path3922" />
        </g>
        <g
           id="g3924"
           transform="translate(1078.5911,704.7278)">
          <path
             inkscape:connector-curvature="0"
             d="m 0,0 0,7.006 3.544,0 0,-0.436 -3.057,0 0,-2.681 2.458,0 0.061,-0.437 -2.519,0 0,-3.015 3.159,0 L 3.646,0 0,0 z"
             style="fill:#231f20;fill-opacity:1;fill-rule:nonzero;stroke:none"
             id="path3926" />
        </g>
        <g
           id="g3928"
           transform="translate(1089.1495,711.2974)">
          <path
             inkscape:connector-curvature="0"
             d="m 0,0 -1.31,0 0,-6.133 1.341,0 c 1.847,0 3.086,1.046 3.086,3.066 C 3.117,-1.076 1.858,0 0,0 m -0.02,-6.57 -1.777,0 0,7.007 1.807,0 c 2.244,0 3.615,-1.392 3.615,-3.493 0,-2.204 -1.503,-3.514 -3.645,-3.514"
             style="fill:#231f20;fill-opacity:1;fill-rule:nonzero;stroke:none"
             id="path3930" />
        </g>
        <g
           id="g3932"
           transform="translate(1094.8953,709.5608)">
          <path
             inkscape:connector-curvature="0"
             d="m 0,0 -0.264,0.061 0.396,2.112 0.619,0 L 0,0 z"
             style="fill:#231f20;fill-opacity:1;fill-rule:nonzero;stroke:none"
             id="path3934" />
        </g>
        <path
           inkscape:connector-curvature="0"
           d="m 1097.981,711.734 0.487,0 0,-7.006 -0.487,0 0,7.006 z"
           style="fill:#231f20;fill-opacity:1;fill-rule:nonzero;stroke:none"
           id="path3936" />
        <g
           id="g3938"
           transform="translate(1105.9921,704.7278)">
          <path
             inkscape:connector-curvature="0"
             d="m 0,0 -4.295,6.265 0,-6.265 -0.467,0 0,7.006 0.497,0 4.184,-6.092 0,6.092 0.467,0 L 0.386,0 0,0 z"
             style="fill:#231f20;fill-opacity:1;fill-rule:nonzero;stroke:none"
             id="path3940" />
        </g>
        <g
           id="g3942"
           transform="translate(1111.9003,704.5961)">
          <path
             inkscape:connector-curvature="0"
             d="m 0,0 c -1.939,0 -3.198,1.492 -3.198,3.625 0,2.132 1.309,3.644 3.147,3.644 0.812,0 1.493,-0.223 2.031,-0.609 L 1.889,6.132 c -0.529,0.427 -1.158,0.701 -1.95,0.701 -1.584,0 -2.63,-1.289 -2.63,-3.198 0,-1.899 1.036,-3.199 2.711,-3.199 0.701,0 1.239,0.183 1.747,0.518 l 0,2.295 -1.747,0 -0.071,0.436 2.305,0 0,-2.954 C 1.574,0.274 0.883,0 0,0"
             style="fill:#231f20;fill-opacity:1;fill-rule:nonzero;stroke:none"
             id="path3944" />
        </g>
        <g
           id="g3946"
           transform="translate(1118.6204,712.3634)">
          <path
             inkscape:connector-curvature="0"
             d="M 0,0 -0.345,0 0.731,1.574 1.401,1.422 0,0 z m -1.899,-7.636 0,7.007 3.544,0 0,-0.437 -3.056,0 0,-2.681 2.457,0 0.061,-0.436 -2.518,0 0,-3.016 3.158,0 0,-0.437 -3.646,0 z"
             style="fill:#231f20;fill-opacity:1;fill-rule:nonzero;stroke:none"
             id="path3948" />
        </g>
        <g
           id="g3950"
           transform="translate(1127.2604,704.7278)">
          <path
             inkscape:connector-curvature="0"
             d="m 0,0 -4.295,6.265 0,-6.265 -0.467,0 0,7.006 0.497,0 4.183,-6.092 0,6.092 0.468,0 L 0.386,0 0,0 z"
             style="fill:#231f20;fill-opacity:1;fill-rule:nonzero;stroke:none"
             id="path3952" />
        </g>
        <path
           inkscape:connector-curvature="0"
           d="m 1130.407,711.734 0.487,0 0,-7.006 -0.487,0 0,7.006 z"
           style="fill:#231f20;fill-opacity:1;fill-rule:nonzero;stroke:none"
           id="path3954" />
        <g
           id="g3956"
           transform="translate(1133.6549,704.7278)">
          <path
             inkscape:connector-curvature="0"
             d="m 0,0 0,7.006 3.544,0 0,-0.436 -3.056,0 0,-2.681 2.457,0 0.061,-0.437 -2.518,0 0,-3.015 3.158,0 L 3.646,0 0,0 z"
             style="fill:#231f20;fill-opacity:1;fill-rule:nonzero;stroke:none"
             id="path3958" />
        </g>
        <g
           id="g3960"
           transform="translate(1141.8175,704.6263)">
          <path
             inkscape:connector-curvature="0"
             d="m 0,0 c -1.604,0 -2.538,1.127 -2.538,2.691 l 0,4.417 0.487,0 0,-4.346 c 0,-1.371 0.721,-2.325 2.072,-2.325 1.33,0 2.071,0.903 2.071,2.274 l 0,4.397 0.487,0 0,-4.367 C 2.579,1.107 1.615,0 0,0"
             style="fill:#231f20;fill-opacity:1;fill-rule:nonzero;stroke:none"
             id="path3962" />
        </g>
        <g
           id="g3964"
           transform="translate(1148.5789,711.2974)">
          <path
             inkscape:connector-curvature="0"
             d="m 0,0 -1.168,0 0,-2.924 1.036,0 c 1.117,0 1.828,0.517 1.828,1.492 C 1.696,-0.508 1.087,0 0,0 m 2.254,-6.641 -2.386,3.29 -1.036,0 0,-3.219 -0.487,0 0,7.007 1.685,0 c 1.31,0 2.173,-0.681 2.173,-1.848 0,-1.097 -0.792,-1.716 -1.787,-1.889 L 2.772,-6.529 2.254,-6.641 z"
             style="fill:#231f20;fill-opacity:1;fill-rule:nonzero;stroke:none"
             id="path3966" />
        </g>
        <g
           id="g3968"
           transform="translate(1154.751,704.6469)">
          <path
             inkscape:connector-curvature="0"
             d="m 0,0 c -0.751,0 -1.36,0.193 -1.787,0.416 l 0.071,0.497 C -1.32,0.67 -0.69,0.437 0.031,0.437 c 0.893,0 1.604,0.548 1.604,1.421 0,0.731 -0.406,1.147 -1.472,1.604 -1.361,0.579 -1.838,1.046 -1.838,2 0,0.995 0.843,1.706 1.909,1.706 0.65,0 1.167,-0.142 1.513,-0.345 L 1.676,6.336 C 1.269,6.569 0.813,6.731 0.214,6.731 -0.63,6.731 -1.178,6.173 -1.178,5.483 -1.178,4.772 -0.782,4.427 0.315,3.96 1.564,3.432 2.143,2.894 2.143,1.888 2.143,0.7 1.158,0 0,0"
             style="fill:#231f20;fill-opacity:1;fill-rule:nonzero;stroke:none"
             id="path3970" />
        </g>
      </g>
    </g>
  </g>
</svg>
